/* XPM */
static char *result[] = {
/* columns rows colors chars-per-pixel */
"48 32 6 1 ",
"  c #4061D6",
". c #388AF5",
"X c #61D7FF",
"o c #69FFFF",
"O c white",
"+ c None",
/* pixels */
"++++++++++++++++++++++++++++++++++++++++++++++++",
"++++++++++++++++++++++++++++++++++++++++++++++++",
"++++++++++++++++++++++++++++++++++++++++++++++++",
"++++++++++++++++++++++++++++++++++++++++OOO+++++",
"+++++++++++++++++++++++++++++++++++++++OOOo+++++",
"++++++++++++..... ++++++++++++++++++++OOO++o++++",
"++++++++++.........+++++++++++++++++++OO++++o+++",
"+++++++++..... +++ . ++++++++++++++++OOO++++o+++",
"++++++O..XooX....++++++++++++++++++++Oo++++++o++",
"+++++O....XooX... .+++ ..++++++++++++o+++++++o++",
"++++OO.....XooX... +++....+++++++++++o ..   ++o+",
"+++OO..XXX..oOoo.. ++..  .oo+++++++++o++++++++++",
"+++OO.Xoooo.OOOoX..++. ++. OO+++++++oo++++++++++",
"++OOo.ooOooXoOOoo...+ ++++++OO++++++o+++++ .. ++",
"++Oo.OOOOOooooOo......++++++oOO++++o++++++++..  ",
"++O .oOOOOOOoOoooXoX..+++++++OO++++o++++++++++++",
"++o..oOOOOOoXooooooo..++++++++O+++o+++++++++++++",
"+++..oOOOOoXXooooXoX..+++.. ++o++o++++++++++++++",
"+++..ooOOOo..XooX.....  ..+++++oo++++++o++++++o+",
"+++ .XoOOoX..ooX... .. ...+++++++++++++o++++++o+",
"++++..Ooooo..ooX...+ ....+++++++++++++++o++++o++",
"++++ oOXooX..XoX...++... +++++++++++++++o+OOO+++",
"+++++.OOOOO...X... ++++++++++++++++++++++ooO++++",
"++++++ooOOO....O. ++++++++++++++++++++++++++++++",
"++++++++...OOO.+O+++++++++++++++++++++++++++++++",
"+++++++++ ...oOOo+++++++++++++++++++++++++++++++",
"++++++++++++++oO++++++++++++++++++++++++++++++++",
"++++++++++++++++++++++++++++++++++++++++++++++++",
"++++++++++++++++++++++++++++++++++++++++++++++++",
"++++++++++++++++++++++++++++++++++++++++++++++++",
"++++++++++++++++++++++++++++++++++++++++++++++++",
"++++++++++++++++++++++++++++++++++++++++++++++++"
};
