/* XPM */
static char *result[] = {
/* columns rows colors chars-per-pixel */
"48 32 6 1 ",
"  c #4061D6",
". c #388AF5",
"X c #61D7FF",
"o c #69FFFF",
"O c white",
"+ c None",
/* pixels */
"++++++++++++++++++++++++++++++++++++++++++++++++",
"++++++++++++++++++++++++++++++++++++++++++++++++",
"++++++++++++++++++++++++++++++++++++++++o+++++++",
"+++++++++++++++++++++++++++++++++++++++oo+++++++",
"+++++++++++++++oOOO++++++++++++++++++++o+++++o++",
"++++++++++++OOOOOOOOO. +++++++++++++++o+++++++o+",
"++++++++++OOOOOOOOOOOO.. +++++++++++++++++++++o+",
"+++++++..Oo+++++ooOOOO... ++++++++++++++++++++++",
"++++++..... ++ .XooOOOOX..++++++++++++++++++++++",
"+++++...X...   oooooOOO...++++++++++++++++++++++",
"++++...Xo....XooX....OO ++++++++++++++++++++++++",
"++++..Xoo............O. + .. +++++++++++++++++++",
"++++..oooX..XoooX... O .......++++++++++++++++++",
"+++ .Xoooo..ooo.... +O+  ......+++++++++++++++++",
"+++..ooOOo.ooX.... +O++...    .+++++++++++++++++",
"+++..oOOOOXoX...... O+ .... ++.+++++++o+++++++++",
"+++..oOOOOoX..XooX.O........++++++++++++++++++++",
"+++..oOOOOoX.XooooXO........ +++++++o+++++++++++",
"+++..ooOOOOoooOooX.O.XooX.....+++++oO++++++++O++",
"+++..XoooooOoOOoooO.Xoo.......++++oO++++++++++O+",
"+++ .XooooXooooXoOO..........++o++++++++++++++O+",
"++++..XooX...   OO......   . ++++++++++++++++++O",
"++++...oX... ++OO......   . ++++++++++++++++++++",
"+++++..X....+++Oo+....  ...+++++++++++++++++++++",
"++++++.... ++++Oo++ ..O...++++++++++++++++++++++",
"+++++++++++++++OO+++oO++++++++++++++++++++++++++",
"++++++++++++++++OooOO+++++++++++++++++++++++++++",
"+++++++++++++++++OO+++++++++++++++++++++++++++++",
"++++++++++++++++++++++++++++++++++++++++++++++++",
"++++++++++++++++++++++++++++++++++++++++++++++++",
"++++++++++++++++++++++++++++++++++++++++++++++++",
"++++++++++++++++++++++++++++++++++++++++++++++++"
};
