/* XPM */
static char *result[] = {
/* columns rows colors chars-per-pixel */
"48 32 6 1 ",
"  c #4061D6",
". c #388AF5",
"X c #61D7FF",
"o c #69FFFF",
"O c white",
"+ c None",
/* pixels */
"++++++++++++++++++++++++++++++++++++++++++++++++",
"++++++++++++++++++++++++++++++++++++++++++++++++",
"++++++++++++++++++++++++++++++++++++++++++++++++",
"++++++++++++++++++++++++++++++++++++++++O+++++++",
"++++++++++++++++++++++++++++++++++++++++++++++++",
"++++++++++++++++++++++++++++++++++++++++++++++O+",
"++++++++++++++++++++++++++++++++++++++++++++++++",
"++++++++++++++++++++++OOOOOOXX++++++++++++++++++",
"++++++++++++.....  ++OOOX+++OOOO++++++++++++++++",
"+++++++++ ..........OOO+++++OOOOX+++++++++++++++",
"++++++ ............OOO.... OOO+++X++++++++++++++",
"+++++..............OO  ++++OO ..  X+++++++++++++",
"++++...XoXX........OX.. ++OOX.......... ++++++++",
"+++ ..XoooooX.....OO.....OO.X....... +++++++++++",
"+++..XoOOooooX...O.....OOOooXX.. +++++++++++++++",
"+++..oOOOOOOooooO...OOOOooX...X+++++++++++++++++",
"+++..oOOOOoooooooooXXXXX.....X++++++++++++++++++",
"+++..oOOOOooOOooooooo..X..  +X++++++++++++++++++",
"+++..XoOOooOOooooooX...OX  +X+++++++++++++++++++",
"+++ ..ooooooooooooX.. ++OOOOO+++++++++++++++++++",
"++++..XoooX..XooX... ++++OO+++++++++++O+++++++++",
"+++++ ............... ++++++++++++++++++++++++++",
"+++++++................ ++++++++++++++++++++++++",
"+++++++++ ....... ++++++++++++++++++++++++++++++",
"++++++++++++++++++++++++++++++++++++++++++++++++",
"++++++++++++++++++++++++++++++++++++++++++++++++",
"++++++++++++++++++++++++++++++++++++++++++++++++",
"++++++++++++++++++++++++++++++++++++++++++++++++",
"++++++++++++++++++++++++++++++++++++++++++++++++",
"++++++++++++++++++++++++++++++++++++++++++++++++",
"++++++++++++++++++++++++++++++++++++++++++++++++",
"++++++++++++++++++++++++++++++++++++++++++++++++"
};
