/* XPM */
static char *result[] = {
/* columns rows colors chars-per-pixel */
"48 32 6 1 ",
"  c #4061D6",
". c #388AF5",
"X c #61D7FF",
"o c #69FFFF",
"O c white",
"+ c None",
/* pixels */
"++++++++++++++++++++++++++++++++++++++++++++++++",
"++++++++++++++++++++++++++++++++++++++++++++++++",
"++++++++++++++++++++++++++++++++++++++++++++++++",
"++++++++++++++++++++++++++++++++++++++++++++++++",
"++++++++++++++++++++++++++++++++++++++++++++++++",
"++++++++++++++++++++++++++++++++++++++++++++++++",
"++++++++++++++++++++++++++++++++++++++++++++++++",
"++++++++++++++++++++       +++++++++++++++++++++",
"++++++++++++ ............... +++++++++++++++++++",
"++++++++........XooX.. ++  ... +++++++++++++++++",
"+++++++.............. ++++++++++++++++++++++++++",
"++++++...XooXX..... +++++++++++++++XOOO+++++++++",
"++++....oooooooX....... ++++++++++XOO+X+++++++++",
"+++ ...XoOoX...........+++++++++++XOO++X++++++++",
"+++...XOOOoXXoX..X.. .+++++.. ++++OOX+++XX++.   ",
"+++...oOOOoXoooXXoX +++++++++. .+OOO+++++++. +++",
"+++...oOOoX.Xooo.X. ++++++++++X.OOX++++++.. ++++",
"+++ ..oOOoX..ooX.... ++++++++X+.OX.++++... +++++",
"++++..Xoooo..XX....... ++++++X+OO.. ++... ++++++",
"++++...XXXoooX........... ++X++OO.......++++++++",
"+++++.................. ++++X++OO......+++++++++",
"+++++++............. +++++++XOOOX++..  +++++++++",
"++++++++++..............+++++XX+++++++++++++++++",
"+++++++++++++ ....  ++++++++++++++++++++++++++++",
"++++++++++++++++++++++++++++++++++++++++++++++++",
"++++++++++++++++++++++++++++++++++++++++++++++++",
"++++++++++++++++++++++++++++++++++++++++++++++++",
"++++++++++++++++++++++++++++++++++++++++++++++++",
"++++++++++++++++++++++++++++++++++++++++++++++++",
"++++++++++++++++++++++++++++++++++++++++++++++++",
"++++++++++++++++++++++++++++++++++++++++++++++++",
"++++++++++++++++++++++++++++++++++++++++++++++++"
};
