/* XPM */
static char *_a6ab17c7aaa4f0d95d3b8ca2c7b2f3dwhUuAxeEhlQ2f9VE[] = {
/* columns rows colors chars-per-pixel */
"32 32 38 1 ",
"  c None",
". c #180601",
"X c #370F03",
"o c #570D00",
"O c #461505",
"+ c #571C08",
"@ c #571F0D",
"# c #73250E",
"$ c #73260E",
"% c #813600",
"& c #943315",
"* c #8D4700",
"= c #934502",
"- c #B86804",
"; c #C36A1E",
": c #C97916",
"> c #DB781E",
", c #DB8214",
"< c #D5841F",
"1 c #EB8F1D",
"2 c #E18E27",
"3 c #EC9623",
"4 c #ED982B",
"5 c #EB9D36",
"6 c #EC9F35",
"7 c #EF9E38",
"8 c #E79041",
"9 c #D5A643",
"0 c #F1A842",
"q c #F5B150",
"w c #F9BF5E",
"e c #F2C758",
"r c #FAC866",
"t c #FBC968",
"y c #FFD979",
"u c #FFE37F",
"i c #FFF5B5",
"p c white",
/* pixels */
"                                ",
"                                ",
"                                ",
"                                ",
"                                ",
"                                ",
"           oooooooooo           ",
"         o-36qqqqqq6>-o         ",
"        o36qqqqqqqyqq6>o        ",
"       o36qwqqqiqqqwqq6>o       ",
"       %6qqqqqqqqqqqqiq6%       ",
"      o3qtytwqqqqyq0wqqq>o      ",
"      oqtyyyyywwqwq6yqq6>o      ",
"      o3ytytyyyywy08w0qt3o      ",
"      o-3qiqityyty68t8t3-o      ",
"     X;ee;===;<<222<:-=99.      ",
"     X;u;&#@;eeeeeeeee9&&#.     ",
"     X#&#&&#&#;;upuuu;##O#.     ",
"      X++#&#&&&&;eee;&&#+O.     ",
"      oXX+O+#+##&;e##+O++X      ",
"      o4-XO++O++OOO+OXO+Xo      ",
"      orqr-*XX++XXX+XO*-,o      ",
"       o4r7q7qqq77q75,,-o       ",
"        %qqiyyrrqqq55,,%        ",
"         o%q4qqq77q71%o         ",
"           o%%%%%%%%o           ",
"                                ",
"                                ",
"                                ",
"                                ",
"                                ",
"                                "
};
