/* XPM */
static char *result[] = {
/* columns rows colors chars-per-pixel */
"18 16 12 1 ",
"  c gray11",
". c #710E0E",
"X c #861717",
"o c #961818",
"O c #827025",
"+ c #D7B72E",
"@ c #929292",
"# c #AEAEAE",
"$ c #CECECE",
"% c gray89",
"& c #F3F3F3",
"* c None",
/* pixels */
"***********XXX****",
"**********XooX****",
"***%%%%**XoooX****",
"**%$$$$%%oooooX***",
"*%$&&&&$$$ooooX***",
"%$&&&&&&&&&o oX***",
"%$&&$$$$&&&o oX***",
"%$&$&&&&&&&.oo++**",
"*%$&&&&&&&&&.oX***",
"*%$&&&&&&&&&&.X***",
"**%$&&&&$&&&##@***",
"***@$$$$&&###@****",
"****@#######@*****",
"*****@@###@@******",
"*******O+*********",
"********O+********"
};
