/* XPM */
static char *_b537d5799ba4dc38fa2e3d2467a35e4uiwPJzmNT4zUOsby[] = {
/* columns rows colors chars-per-pixel */
"17 34 26 1 ",
"  c None",
". c #2E1A23",
"X c #172D3B",
"o c #2B2B26",
"O c #3F3F37",
"+ c #402018",
"@ c #452933",
"# c #543538",
"$ c #613835",
"% c #63403D",
"& c #244B57",
"* c #245257",
"= c #58594C",
"- c #8A583D",
"; c #815646",
": c #A65A46",
"> c #B76A50",
", c #C7795A",
"< c #418079",
"1 c #BD8259",
"2 c #808274",
"3 c #E39C76",
"4 c #EBC678",
"5 c #6EC09B",
"6 c #FFC79C",
"7 c #FFD1A4",
/* pixels */
"       $$$---$-- ",
"  $@@@$$$-----$--",
"  @@$$$----------",
"  $$-----$$-$$$--",
"  @@$$--33333$$- ",
"  $$$-$3++++3+   ",
"  @@@$$3,,,::    ",
"  @63$,3++3::    ",
"   66@,3777::    ",
"   @@,,777777  =2",
"    ,33777337 ===",
"     ,337777@oO= ",
"   <5<<<*::X;.o  ",
"  55<5<<<*XX;;   ",
" 555<5<5555%11   ",
" 5555<5555%111<  ",
"555<<<555%1115&& ",
"55<577%%;11155<< ",
"55<7777;111555>>>",
" 553777;;5555<>33",
"    773<5555<33>3",
"   @..#..144. 33 ",
"   ...;;;;;#;    ",
"   .. 1111;#;;   ",
"      1111#;;;   ",
"     ;111;#;;;   ",
"     1111#.;;#   ",
"     111; @..    ",
"     111  @@     ",
"    ;11   @@     ",
"    11;          ",
"    ..           ",
"    @@           ",
"    @@           "
};
