/* XPM */
static char *c3a7e9fbf63a449ae003a3ad3a3fa963GrXXbQGDirFX0s70[] = {
/* columns rows colors chars-per-pixel */
"30 30 5 1 ",
"  c None",
". c #272120",
"X c #362926",
"o c #59403B",
"O c #70514A",
/* pixels */
"                              ",
"                              ",
"       .........  .......     ",
"     ..XooooOXXX..XoooooX.    ",
"    .XoooooooOXXXXooooooo.    ",
"   .XoooooooooOXXXOooOooo.    ",
"   .oooooooooooXXXOOooooO.    ",
"   .oOooooooooO..XOooooOX.    ",
"   .oooooooooOXXX.OoooOXX.    ",
"   .oooooooooOXXXX.OoOXXX.    ",
"   .ooooooooOXXXXXX.XXXXX.    ",
"   .ooooooooOXXXXXXX.XXXX.    ",
"   .ooooooooXXXXXXXXX.XXX.    ",
"   .ooooooooXXXXXXXXXX.X.     ",
"   .oooooooOXXXXXXXXXXX..     ",
"  .OooOooooOXXXXXXXXXXXXX.    ",
"  .XoooooooXXXXXXXXXXXXXXX.   ",
"  .XooooooOXXXXXXXXXXXXXXX.   ",
"  .XooooooOXXXXXXXXoXoXoXX.   ",
"  .XOooooOXXXXXXXXoXoooXoX.   ",
"  .XXXXXXX.XXXXoXXXoooooXX.   ",
"   .XXoXoXX.XXoXXXoooooXoX.   ",
"   .XXXoXoX..XXXXXXoooXoXX.   ",
"    .XXXXXXX...XXXXXXXoXoX.   ",
"     ....XXX....XXXXXXXXXX.   ",
"         ...    ..XXX.XXXX.   ",
"                  ... ....    ",
"                              ",
"                              ",
"                              "
};
